<?xml version="1.0" standalone="no"?><!DOCTYPE svg PUBLIC "-//W3C//DTD SVG 1.1//EN" "http://www.w3.org/Graphics/SVG/1.1/DTD/svg11.dtd"><svg t="1671026359302" class="icon" viewBox="0 0 1050 1024" version="1.1" xmlns="http://www.w3.org/2000/svg" p-id="1174" xmlns:xlink="http://www.w3.org/1999/xlink" width="205.078125" height="200"><path d="M0 0m185.982906 0l678.290598 0q185.982906 0 185.982906 185.982906l0 652.034188q0 185.982906-185.982906 185.982906l-678.290598 0q-185.982906 0-185.982906-185.982906l0-652.034188q0-185.982906 185.982906-185.982906Z" fill="#00005B" p-id="1175"></path><path d="M424.666803 612.649573h-162.745982l-33.424411 102.697572a8.288274 8.288274 0 0 1-8.45894 6.340923H137.60547q-7.04547 0-4.931829-7.750017l141.495795-403.779829c1.41347-4.227282 2.818188-7.995077 4.231658-13.399521a150.878085 150.878085 0 0 0 2.818188-28.531966 4.358564 4.358564 0 0 1 4.931829-4.931829h112.018598q4.923077 0 5.636376 3.522735l159.350154 447.824957q2.109265 7.04547-4.231658 7.04547h-91.591111a6.51159 6.51159 0 0 1-7.04547-4.931829z m-137.110974-86.899966H398.878632q-4.227282-14.082188-9.859282-31.704616-5.649504-17.600547-11.977299-37.691076l-12.686222-40.15918q-6.336547-20.081778-11.622838-38.750085-5.286291-18.659556-9.509196-34.172718h-0.704547a569.357128 569.357128 0 0 1-14.795487 56.36376q-9.876786 31.704615-20.086154 64.818325-10.21812 33.126838-20.077402 61.29559zM612.47453 714.979556v-259.68465q0-11.968547-0.350086-26.772786-0.36759-14.791111-1.059008-28.181881c-0.472615-8.914051-0.945231-17.197949-1.409094-22.374837a4.183521 4.183521 0 0 1 0.700171-4.227282 5.750154 5.750154 0 0 1 4.231658-1.409094h70.332171a15.753846 15.753846 0 0 1 7.04547 1.409094 6.63412 6.63412 0 0 1 3.522735 4.931829q1.400342 4.227282 3.168274 9.513572a72.318906 72.318906 0 0 1 2.468102 14.270359 141.543932 141.543932 0 0 1 46.500103-27.122871 160.050325 160.050325 0 0 1 52.841025-8.809026 134.025846 134.025846 0 0 1 41.213812 6.695385 104.119795 104.119795 0 0 1 66.581881 64.818324c7.04547 18.086291 9.806769 41.458872 9.806769 70.104616v206.839248q0 6.345299-5.636376 6.345299l-82.326975 0.726427a6.222769 6.222769 0 0 1-7.04547-7.04547v-196.249162a97.13559 97.13559 0 0 0-8.502701-38.098052 50.342291 50.342291 0 0 0-17.968136-21.836581 53.020444 53.020444 0 0 0-29.94106-7.754393 87.657026 87.657026 0 0 0-33.11371 5.990838 83.530393 83.530393 0 0 0-26.068239 16.554666v241.366428q0 6.345299-5.636376 6.345299h-83.014017a5.601368 5.601368 0 0 1-6.345299-6.345299z" fill="#9999FF" p-id="1176"></path></svg>