<?xml version="1.0" standalone="no"?><!DOCTYPE svg PUBLIC "-//W3C//DTD SVG 1.1//EN" "http://www.w3.org/Graphics/SVG/1.1/DTD/svg11.dtd"><svg t="1671268582835" class="icon" viewBox="0 0 1024 1024" version="1.1" xmlns="http://www.w3.org/2000/svg" p-id="8303" xmlns:xlink="http://www.w3.org/1999/xlink" width="200" height="200"><path d="M648.6 623.86c0 84.82-79.44 82.86-87.84 82.86h-161.78v-163.38h161.78c85.12 0 87.84 63.8 87.84 80.52z m-100.3-146.26c1.34 0 76.88 2 76.88-72.62 0-31.04-7.02-71.74-76.88-71.74h-149.32v144.36h149.32zM960 213.34v597.32A149.78 149.78 0 0 1 810.66 960H213.34A149.78 149.78 0 0 1 64 810.66V213.34A149.78 149.78 0 0 1 213.34 64h597.32A149.78 149.78 0 0 1 960 213.34zM740.1 635.72c0-43.14-13.3-116.58-98.1-134.7v-1.46c45.82-19.56 74.68-56.5 74.68-111.28 0-14 4-129.56-155.2-129.56h-254v522.66c256.46 0 279.74 3.36 327.2-11.42 28.42-8.84 105.42-35.96 105.42-134.24z" p-id="8304" fill="#009ECE"></path></svg>