<svg t="1671278489506" class="icon" viewBox="0 0 1024 1024" version="1.1" xmlns="http://www.w3.org/2000/svg" p-id="17896" width="200" height="200"><path d="M777 817a40 40 0 0 1-40-40c0-270.19-219.81-490-490-490a40 40 0 0 1 0-80 569.56 569.56 0 0 1 570 570 40 40 0 0 1-40 40z" fill="#1afa29" p-id="17897"></path><path d="M604.05 817a40 40 0 0 1-40-40c0-174.82-142.23-317.05-317.05-317.05a40 40 0 0 1 0-80A396.76 396.76 0 0 1 644.05 777a40 40 0 0 1-40 40z" fill="#1afa29" p-id="17898"></path><path d="M436.68 817a40 40 0 0 1-40-40c0-82.54-67.15-149.68-149.68-149.68a40 40 0 0 1 0-80A229.69 229.69 0 0 1 476.68 777a40 40 0 0 1-40 40z" fill="#1afa29" p-id="17899"></path></svg>