<?xml version="1.0" standalone="no"?><!DOCTYPE svg PUBLIC "-//W3C//DTD SVG 1.1//EN" "http://www.w3.org/Graphics/SVG/1.1/DTD/svg11.dtd"><svg t="1671027428206" class="icon" viewBox="0 0 1024 1024" version="1.1" xmlns="http://www.w3.org/2000/svg" p-id="1234" xmlns:xlink="http://www.w3.org/1999/xlink" width="200" height="200"><path d="M512 42.666667C251.733333 42.666667 42.666667 253.866667 42.666667 512s209.066667 469.333333 469.333333 469.333333c258.133333 0 469.333333-211.2 469.333333-469.333333S770.133333 42.666667 512 42.666667z m-87.466667 842.666666c4.266667-4.266667 8.533333-8.533333 12.8-14.933333 4.266667-8.533333 4.266667-38.4 10.666667-44.8 17.066667-21.333333 25.6-19.2 46.933333-34.133333 19.2-14.933333 21.333333-36.266667 25.6-59.733334 2.133333-10.666667-17.066667-19.2-8.533333-27.733333 4.266667-6.4 0-6.4 6.4-12.8 6.4-4.266667 8.533333-10.666667 6.4-19.2 0-4.266667-2.133333-6.4-4.266667-10.666667 0-4.266667 0-6.4 2.133334-10.666666 6.4-10.666667 17.066667-27.733333 6.4-34.133334 0 0-2.133333 0-2.133334-2.133333-8.533333-6.4-17.066667-14.933333-17.066666-25.6 0-6.4 4.266667-10.666667 6.4-14.933333 6.4-12.8 10.666667-27.733333 12.8-42.666667 2.133333-17.066667 0-38.4-17.066667-46.933333-8.533333-4.266667-19.2-4.266667-27.733333-6.4-21.333333-2.133333-40.533333-4.266667-61.866667-8.533334s-4.266667-12.8-19.2-29.866666c-4.266667-4.266667-8.533333-10.666667-12.8-14.933334-6.4-6.4-14.933333-8.533333-23.466667-8.533333-19.2-4.266667-40.533333 0-59.733333 0s-42.666667-6.4-53.333333-21.333333c-4.266667-6.4-6.4-14.933333-12.8-19.2-6.4-6.4-14.933333-6.4-23.466667-8.533334-17.066667 0-34.133333 2.133333-53.333333 2.133334h-4.266667C211.2 228.266667 349.866667 128 512 128c72.533333 0 140.8 21.333333 200.533333 57.6-8.533333 10.666667-19.2 21.333333-25.6 29.866667-4.266667 4.266667-8.533333 10.666667-8.533333 17.066666 0 6.4 2.133333 12.8 4.266667 19.2 4.266667 10.666667 6.4 21.333333 10.666666 29.866667 2.133333 6.4 4.266667 12.8 4.266667 19.2-2.133333 14.933333-17.066667 21.333333-27.733333 29.866667-27.733333 23.466667-29.866667 64-29.866667 100.266666 0 4.266667 0 6.4 2.133333 10.666667 2.133333 6.4 10.666667 12.8 17.066667 14.933333 21.333333 6.4 46.933333 2.133333 59.733333 19.2 12.8 19.2 0 51.2 17.066667 68.266667 10.666667 10.666667 27.733333 8.533333 42.666667 10.666667 4.266667 0 6.4 2.133333 10.666666 4.266666 2.133333 4.266667 2.133333 8.533333 4.266667 12.8 2.133333 6.4 8.533333 8.533333 12.8 10.666667 25.6 10.666667 53.333333 21.333333 78.933333 17.066667-8.533333 34.133333-19.2 66.133333-36.266666 96-2.133333-2.133333-6.4-2.133333-8.533334-4.266667-19.2-10.666667-40.533333-21.333333-59.733333-10.666667-6.4 4.266667-12.8 8.533333-19.2 10.666667h-8.533333c-8.533333-2.133333-17.066667 0-21.333334 6.4-6.4 12.8-8.533333 25.6-4.266666 38.4 4.266667 10.666667 10.666667 19.2 10.666666 32 0 19.2-17.066667 32-27.733333 46.933333-6.4 8.533333-8.533333 21.333333-10.666667 34.133334C640 878.933333 578.133333 896 512 896c-29.866667 0-59.733333-4.266667-87.466667-10.666667z" fill="#80B8F8" p-id="1235"></path></svg>