<?xml version="1.0" standalone="no"?><!DOCTYPE svg PUBLIC "-//W3C//DTD SVG 1.1//EN" "http://www.w3.org/Graphics/SVG/1.1/DTD/svg11.dtd"><svg t="1671268700432" class="icon" viewBox="0 0 1025 1024" version="1.1" xmlns="http://www.w3.org/2000/svg" p-id="12263" xmlns:xlink="http://www.w3.org/1999/xlink" width="200.1953125" height="200"><path d="M620.6 205.7c-61.5-12.9-128.6-14.4-190.6-4.6l-9.9-62.4c69.6-11.1 144.5-9.3 213.5 5.1l-13 61.9zM512.9 1015.7C230.1 1015.7 0 817.4 0 573.6c0-114.6 50.5-223.1 142.2-305.7 13-11.7 32.9-10.6 44.6 2.3 11.7 13 10.6 32.9-2.3 44.6-78.2 70.5-121.3 162.4-121.3 258.8 0 208.9 201.7 378.9 449.7 378.9 247.9 0 449.6-170 449.6-378.9 0-60-16.1-117.4-48-170.5-9-15-4.1-34.4 10.8-43.3 15-9 34.4-4.1 43.3 10.8 37.3 62.2 57 132.4 57 203 0 243.8-230 442.1-512.7 442.1z" fill="#AAD08F" p-id="12264"></path><path d="M279.3 378.7c-99.4 0-180.2-80.8-180.2-180.2S179.9 18.3 279.3 18.3s180.2 80.8 180.2 180.2S378.6 378.7 279.3 378.7z m0-297.2c-64.5 0-117 52.5-117 117s52.5 117 117 117 117-52.5 117-117-52.5-117-117-117zM773.8 378.7c-99.4 0-180.2-80.8-180.2-180.2S674.4 18.3 773.8 18.3c34.4 0 67.9 9.7 96.8 28.2 14.7 9.4 19 28.9 9.6 43.6-9.4 14.7-28.9 19-43.6 9.6-18.7-12-40.5-18.3-62.8-18.3-64.5 0-117 52.5-117 117s52.5 117 117 117 117-52.5 117-117c0-17.4 14.1-31.6 31.6-31.6s31.6 14.1 31.6 31.6c0 99.5-80.8 180.3-180.2 180.3z" fill="#AAD08F" p-id="12265"></path><path d="M773.8 198.5m-37.1 0a37.1 37.1 0 1 0 74.2 0 37.1 37.1 0 1 0-74.2 0Z" fill="#AAD08F" p-id="12266"></path><path d="M279.3 198.5m-37.1 0a37.1 37.1 0 1 0 74.2 0 37.1 37.1 0 1 0-74.2 0Z" fill="#AAD08F" p-id="12267"></path><path d="M444.9 473.7m-23.7 0a23.7 23.7 0 1 0 47.4 0 23.7 23.7 0 1 0-47.4 0Z" fill="#AAD08F" p-id="12268"></path><path d="M581.8 473.7m-23.7 0a23.7 23.7 0 1 0 47.4 0 23.7 23.7 0 1 0-47.4 0Z" fill="#AAD08F" p-id="12269"></path><path d="M358.8 649.3c-110.9 0-185.1-95.9-186.1-97.1-7-9.3-5.2-22.5 4.1-29.5s22.5-5.2 29.5 4.1c4.3 5.6 103.7 132.7 239.1 55.7 51.8-29.5 116.3-35 176.8-15.1 69.2 22.7 166.4 34.9 237-35.7 8.2-8.2 21.6-8.2 29.8 0s8.2 21.6 0 29.8c-85.8 85.8-199.6 72.3-279.9 45.9-49.3-16.2-101.3-11.9-142.8 11.7-38.5 21.8-74.6 30.2-107.5 30.2z" fill="#AAD08F" p-id="12270"></path><path d="M526.5 866c-265.7 0-305.4-132-305.4-210.6 0-11.6 9.4-21.1 21.1-21.1 11.6 0 21.1 9.4 21.1 21.1 0 110.2 91 168.5 263.3 168.5 226.5 0 252.7-90.2 252.7-158 0-11.6 9.4-21.1 21.1-21.1s21.1 9.4 21.1 21.1c-0.1 134.6-96.5 200.1-295 200.1z" fill="#AAD08F" p-id="12271"></path></svg>