<?xml version="1.0" standalone="no"?><!DOCTYPE svg PUBLIC "-//W3C//DTD SVG 1.1//EN" "http://www.w3.org/Graphics/SVG/1.1/DTD/svg11.dtd"><svg t="1671268356391" class="icon" viewBox="0 0 1024 1024" version="1.1" xmlns="http://www.w3.org/2000/svg" p-id="7811" xmlns:xlink="http://www.w3.org/1999/xlink" width="200" height="200"><path d="M128 789.333333C128 871.68 194.986667 938.666667 277.333333 938.666667s149.333333-66.986667 149.333334-149.333334c0-67.413333-45.226667-123.861333-106.666667-142.378666v-128.085334c4.437333 3.712 8.576 7.637333 13.354667 11.008 50.346667 36.010667 111.658667 46.848 167.168 46.848 41.216 0 79.061333-5.973333 106.922666-11.989333a149.333333 149.333333 0 0 0 139.264 96.64c82.346667 0 149.333333-66.986667 149.333334-149.333333s-66.986667-149.333333-149.333334-149.333334a149.333333 149.333333 0 0 0-145.237333 115.968c-55.338667 13.696-156.330667 26.282667-218.410667-18.176-26.325333-18.816-43.52-48.512-53.333333-86.4A149.376 149.376 0 0 0 426.666667 234.666667C426.666667 152.32 359.68 85.333333 277.333333 85.333333S128 152.32 128 234.666667c0 67.413333 45.226667 123.861333 106.666667 142.378666v269.909334C173.226667 665.472 128 721.92 128 789.333333z m618.666667-341.333333c35.285333 0 64 28.714667 64 64s-28.714667 64-64 64S682.666667 547.285333 682.666667 512s28.714667-64 64-64z m-405.333334 341.333333c0 35.285333-28.714667 64-64 64S213.333333 824.618667 213.333333 789.333333 242.048 725.333333 277.333333 725.333333s64 28.714667 64 64z m-128-554.666666C213.333333 199.381333 242.048 170.666667 277.333333 170.666667S341.333333 199.381333 341.333333 234.666667 312.618667 298.666667 277.333333 298.666667 213.333333 269.952 213.333333 234.666667z" fill="#1296db" p-id="7812"></path></svg>