<svg width="22" height="21" viewBox="0 0 22 21" fill="none" xmlns="http://www.w3.org/2000/svg">
<path d="M19.4753 1.04951C19.8508 1.10352 20.1886 1.29917 20.4147 1.59347C20.6407 1.88777 20.7365 2.25665 20.6808 2.61904C20.6538 2.79863 20.5903 2.9713 20.494 3.12718C20.3977 3.28305 20.2705 3.41906 20.1196 3.52741C19.9688 3.63577 19.7972 3.71434 19.6149 3.75863C19.4325 3.80291 19.2429 3.81205 19.0569 3.78551C17.3121 3.53561 14.8521 6.0057 12.1135 11.0526C8.71398 17.3192 5.57109 20.2846 2.32398 20.0522C1.94556 20.0247 1.59393 19.8533 1.3464 19.5757C1.09887 19.2981 0.975703 18.937 1.00398 18.5718C1.0624 17.8099 1.74767 17.2385 2.53556 17.2948C4.32846 17.4228 6.8224 14.8545 9.58241 9.76723C13.0016 3.46475 16.1816 0.578655 19.4753 1.04951Z" fill="#766CF0" stroke="#766CF0" stroke-width="0.912368"/>
</svg>
