<?xml version="1.0" standalone="no"?><!DOCTYPE svg PUBLIC "-//W3C//DTD SVG 1.1//EN" "http://www.w3.org/Graphics/SVG/1.1/DTD/svg11.dtd"><svg t="1671209399577" class="icon" viewBox="0 0 1024 1024" version="1.1" xmlns="http://www.w3.org/2000/svg" p-id="2164" xmlns:xlink="http://www.w3.org/1999/xlink" width="200" height="200"><path d="M812.842667 0H211.157333C96 0 0 94.762667 0 211.2v601.642667C0 928 94.72 1024 211.157333 1024h601.685334A211.456 211.456 0 0 0 1024 812.842667V211.2C1024 96 929.237333 0 812.842667 0z m-284.842667 674.602667h-52.437333V793.6a27.733333 27.733333 0 0 1-27.562667 27.562667H283.562667V202.922667H563.2c135.722667 0 240.725333 70.4 240.725333 230.4 0 151.68-116.48 241.237333-275.242666 241.237333h-0.682667z" fill="#1296db" p-id="2165"></path></svg>