<?xml version="1.0" standalone="no"?><!DOCTYPE svg PUBLIC "-//W3C//DTD SVG 1.1//EN" "http://www.w3.org/Graphics/SVG/1.1/DTD/svg11.dtd"><svg t="1671268816041" class="icon" viewBox="0 0 1024 1024" version="1.1" xmlns="http://www.w3.org/2000/svg" p-id="8999" xmlns:xlink="http://www.w3.org/1999/xlink" width="200" height="200"><path d="M491.52 866.304c-202.752 0-368.64-165.888-368.64-368.64s165.888-368.64 368.64-368.64 368.64 165.888 368.64 368.64-165.888 368.64-368.64 368.64z m0-122.88c135.168 0 245.76-110.592 245.76-245.76s-110.592-245.76-245.76-245.76-245.76 110.592-245.76 245.76 110.592 245.76 245.76 245.76z" fill="#AAD08F" p-id="9000"></path><path d="M491.52 661.504c90.112 0 163.84-73.728 163.84-163.84s-73.728-163.84-163.84-163.84-163.84 73.728-163.84 163.84 73.728 163.84 163.84 163.84z" fill="#d81e06" opacity=".3" p-id="9001" data-spm-anchor-id="a313x.7781069.0.i11" class=""></path></svg>