<?xml version="1.0" standalone="no"?><!DOCTYPE svg PUBLIC "-//W3C//DTD SVG 1.1//EN" "http://www.w3.org/Graphics/SVG/1.1/DTD/svg11.dtd"><svg t="1671360038644" class="icon" viewBox="0 0 1024 1024" version="1.1" xmlns="http://www.w3.org/2000/svg" p-id="2078" xmlns:xlink="http://www.w3.org/1999/xlink" width="200" height="200"><path d="M426.666667 554.666667a42.666667 42.666667 0 0 1 42.666666 42.666666v298.666667a42.666667 42.666667 0 0 1-42.666666 42.666667H128a42.666667 42.666667 0 0 1-42.666667-42.666667v-298.666667a42.666667 42.666667 0 0 1 42.666667-42.666666h298.666667z m469.333333 0a42.666667 42.666667 0 0 1 42.666667 42.666666v298.666667a42.666667 42.666667 0 0 1-42.666667 42.666667h-298.666667a42.666667 42.666667 0 0 1-42.666666-42.666667v-298.666667a42.666667 42.666667 0 0 1 42.666666-42.666666h298.666667zM384 640H170.666667v213.333333h213.333333v-213.333333z m469.333333 0h-213.333333v213.333333h213.333333v-213.333333zM426.666667 85.333333a42.666667 42.666667 0 0 1 42.666666 42.666667v298.666667a42.666667 42.666667 0 0 1-42.666666 42.666666H128a42.666667 42.666667 0 0 1-42.666667-42.666666V128a42.666667 42.666667 0 0 1 42.666667-42.666667h298.666667z m469.333333 0a42.666667 42.666667 0 0 1 42.666667 42.666667v298.666667a42.666667 42.666667 0 0 1-42.666667 42.666666h-298.666667a42.666667 42.666667 0 0 1-42.666666-42.666666V128a42.666667 42.666667 0 0 1 42.666666-42.666667h298.666667zM384 170.666667H170.666667v213.333333h213.333333V170.666667z m469.333333 0h-213.333333v213.333333h213.333333V170.666667z" fill="#1296db" p-id="2079"></path></svg>