<?xml version="1.0" standalone="no"?><!DOCTYPE svg PUBLIC "-//W3C//DTD SVG 1.1//EN" "http://www.w3.org/Graphics/SVG/1.1/DTD/svg11.dtd"><svg t="1671209426549" class="icon" viewBox="0 0 1024 1024" version="1.1" xmlns="http://www.w3.org/2000/svg" p-id="2364" xmlns:xlink="http://www.w3.org/1999/xlink" width="200" height="200"><path d="M964.138667 1024H59.989333A60.16 60.16 0 0 1 0 964.010667V59.989333A60.16 60.16 0 0 1 59.989333 0h904.149334a60.16 60.16 0 0 1 59.989333 59.989333v904.021334A60.16 60.16 0 0 1 964.138667 1024zM508.202667 89.984c-230.613333 2.005333-416.554667 191.232-418.218667 421.973333-1.706667 234.965333 186.922667 421.76 421.973333 421.973334 231.04 0.128 417.962667-192 421.973334-421.973334 4.138667-237.738667-187.989333-424.064-425.728-421.973333zM411.733333 368.341333l-37.930666 92.117334H652.8l-37.930667-92.117334 283.392 143.573334-283.392 143.573333 37.930667-92.117333H373.802667l37.632 92.117333-284.117334-143.573333z" p-id="2365" fill="#1296db"></path></svg>