<?xml version="1.0" standalone="no"?><!DOCTYPE svg PUBLIC "-//W3C//DTD SVG 1.1//EN" "http://www.w3.org/Graphics/SVG/1.1/DTD/svg11.dtd"><svg t="1671212509397" class="icon" viewBox="0 0 1024 1024" version="1.1" xmlns="http://www.w3.org/2000/svg" p-id="2117" xmlns:xlink="http://www.w3.org/1999/xlink" width="200" height="200"><path d="M1000.917333 202.666667 719.509333 202.666667 719.509333 78.229333c0-11.776-9.514667-21.333333-21.333333-21.333333L325.824 56.896c-11.776 0-21.333333 9.557333-21.333333 21.333333L304.490667 202.666667 23.104 202.666667c-11.776 0-21.333333 9.557333-21.333333 21.333333l0 667.456c0 11.797333 9.557333 21.333333 21.333333 21.333333l977.813333 0c11.797333 0 21.333333-9.536 21.333333-21.333333L1022.250667 224C1022.250667 212.224 1012.714667 202.666667 1000.917333 202.666667zM347.157333 99.562667l329.685333 0L676.842667 202.666667 347.157333 202.666667 347.157333 99.562667zM325.824 245.333333l372.352 0 281.386667 0L979.562667 512 602.133333 512l0-101.333333c0-11.776-9.514667-21.333333-21.333333-21.333333l-137.536 0c-11.776 0-21.333333 9.557333-21.333333 21.333333L421.930667 512 44.437333 512 44.437333 245.333333 325.824 245.333333zM464.554667 432l94.912 0 0 202.666667-94.912 0L464.554667 432zM44.437333 870.122667 44.437333 554.666667l377.450667 0 0 101.333333c0 11.797333 9.557333 21.333333 21.333333 21.333333l137.578667 0c11.797333 0 21.333333-9.536 21.333333-21.333333L602.133333 554.666667l377.429333 0 0 315.456L44.437333 870.122667z" p-id="2118" fill="#1296db"></path></svg>