<?xml version="1.0" standalone="no"?><!DOCTYPE svg PUBLIC "-//W3C//DTD SVG 1.1//EN" "http://www.w3.org/Graphics/SVG/1.1/DTD/svg11.dtd"><svg t="1671359818643" class="icon" viewBox="0 0 1027 1024" version="1.1" xmlns="http://www.w3.org/2000/svg" p-id="1862" xmlns:xlink="http://www.w3.org/1999/xlink" width="200.5859375" height="200"><path d="M5.833322 5.82612h1018.17388v1018.188283H5.833322z" fill="" p-id="1863"></path><path d="M5.833322 5.82612l1018.166678 1018.181082M5.833322 1024.007202L1024 5.82612" fill="" p-id="1864"></path><path d="M5.833322 5.82612h1018.17388v1018.188283H5.833322z" fill="#769AFF" p-id="1865"></path><path d="M5.833322 5.82612l1018.166678 1018.181082M5.833322 1024.007202L1024 5.82612" fill="#769AFF" p-id="1866"></path><path d="M116.133511 426.214164h795.996343a41.675842 41.675842 0 0 0 41.675843-41.675842c0-13.236599-6.193403-25.011267-15.814783-32.644996a41.596624 41.596624 0 0 0-8.858007-8.411506L631.784739 134.807342a41.668641 41.668641 0 1 0-47.876447 68.228258l199.254743 139.834081H116.133511a41.683044 41.683044 0 0 0 0 83.344483zM912.137056 592.600661H116.133511a41.675842 41.675842 0 0 0-41.675842 41.675842c0 13.236599 6.193403 25.011267 15.814783 32.644996 2.462958 3.147113 5.415627 5.998959 8.858007 8.418708l297.348168 208.681679a41.524608 41.524608 0 0 0 23.902216 7.561713 41.661439 41.661439 0 0 0 23.974231-75.782769L245.114734 675.945144h667.022322a41.675842 41.675842 0 0 0 0-83.344483z" fill="#FFFFFF" p-id="1867"></path></svg>