<?xml version="1.0" standalone="no"?><!DOCTYPE svg PUBLIC "-//W3C//DTD SVG 1.1//EN" "http://www.w3.org/Graphics/SVG/1.1/DTD/svg11.dtd"><svg t="1670937040031" class="icon" viewBox="0 0 1030 1024" version="1.1" xmlns="http://www.w3.org/2000/svg" p-id="1147" xmlns:xlink="http://www.w3.org/1999/xlink" width="201.171875" height="200"><path d="M326.4 601.6l-96-204.8v-6.4c0-6.4 0-6.4 6.4-12.8 6.4 0 6.4-6.4 12.8-6.4s6.4 0 12.8 6.4l108.8 76.8c12.8 6.4 25.6 6.4 44.8 6.4l518.4-217.6C838.4 134.4 684.8 64 512 64 230.4 64 0 249.6 0 473.6c0 121.6 70.4 236.8 179.2 307.2 6.4 6.4 12.8 19.2 12.8 25.6v12.8l-25.6 83.2v12.8c0 6.4 6.4 19.2 19.2 19.2h12.8l115.2-64c6.4-6.4 19.2-6.4 25.6-6.4H352c57.6 12.8 108.8 25.6 166.4 25.6 281.6 0 512-185.6 512-409.6 0-64-19.2-134.4-57.6-192L377.6 608h-6.4c-12.8 12.8-32 6.4-44.8-6.4z" p-id="1148" fill="#aad08f"></path></svg>