<?xml version="1.0" standalone="no"?><!DOCTYPE svg PUBLIC "-//W3C//DTD SVG 1.1//EN" "http://www.w3.org/Graphics/SVG/1.1/DTD/svg11.dtd"><svg t="1671457816432" class="icon" viewBox="0 0 1024 1024" version="1.1" xmlns="http://www.w3.org/2000/svg" p-id="3021" xmlns:xlink="http://www.w3.org/1999/xlink" width="200" height="200"><path d="M224.7 635.4C158 612.3 67.6 567.6 64.4 486.1c-4.3-107.8 83.7-141 169.5-172.5 41.8-15.4 79.4-30.3 112.4-60.8 43-39.7 69.5-87.9 130.7-102.7 76.2-18.4 135.4 24.4 188.7 75.4 42 40.1 85.7 104.6 140.2 127.9 56.8 24.4 115.3 91.6 121.6 154.3 9.2 92.8-91.9 123.5-165.7 137.2-133.4 24.8-270.1 31.3-405.2 19.1-39.5-3.5-86.8-13-131.9-28.6z" fill="#FFD401" p-id="3022"></path><path d="M148.7 532.2a342.2 99.1 0 1 0 684.4 0 342.2 99.1 0 1 0-684.4 0Z" fill="#8BC03C" p-id="3023"></path><path d="M275.1 829.6c-35.9-30.1-38.1-84.5-6-118.5 45.1-47.8 112.8-123.3 124.2-157.6 17.4-52.2 234.9-52.2 217.5 95.7s-52.2 261-113.1 269.7c-42.5 6.1-157.3-34.6-222.6-89.3z" fill="#8BC03C" p-id="3024"></path><path d="M611.5 624.9c-37.5 4.1-78.2 6.4-120.7 6.4-51 0-99.4-3.3-142.9-9.1-9.8 12-20.3 24.4-31 36.6 13.8 2.3 27.1 4.1 39.6 5.2 83.9 7.6 168.4 7.9 252.3 1.2 0.7-5.3 1.3-10.6 2-16 1-8.6 1.2-16.7 0.7-24.3z" fill="#8BA000" p-id="3025"></path><path d="M611.5 624.9c-7.9-123.4-201.8-120.6-218.2-71.4-5.4 16.1-23.3 41.5-45.4 68.7 43.5 5.8 91.9 9.1 142.9 9.1 42.5 0 83.2-2.3 120.7-6.4z" fill="#4C910E" p-id="3026"></path></svg>